<svg xmlns="http://www.w3.org/2000/svg" xmlns:xlink="http://www.w3.org/1999/xlink" xmlns:lucid="lucid" width="1403.88" height="781.76"><g transform="translate(-79 10.755208333333332)" lucid:page-tab-id="0_0"><path d="M80 46a6 6 0 0 1 6-6h188a6 6 0 0 1 6 6v361a6 6 0 0 1-6 6H86a6 6 0 0 1-6-6z" fill="#fff"/><path d="M80 80v38h200V80" fill="#fff"/><path d="M80 117v38h200v-38" fill="#fff"/><path d="M80 154v38h200v-38" fill="#fff"/><path d="M80 191v38h200v-38" fill="#fff"/><path d="M80 228v38h200v-38" fill="#fff"/><path d="M80 265v38h200v-38" fill="#fff"/><path d="M80 302v38h200v-38" fill="#fff"/><path d="M80 339v38h200v-38" fill="#fff"/><path d="M80 376v31a6 6 0 0 0 6 6h188a6 6 0 0 0 6-6v-31" fill="#fff"/><path d="M80 80h200M80 46a6 6 0 0 1 6-6h188a6 6 0 0 1 6 6v361a6 6 0 0 1-6 6H86a6 6 0 0 1-6-6z" stroke="#000" stroke-width="2" fill="none"/><use xlink:href="#a" transform="matrix(1,0,0,1,90,40) translate(59.34136284722223 28.08376736111111)"/><use xlink:href="#b" transform="matrix(1,0,0,1,85,82.5) translate(0 24.08376736111111)"/><use xlink:href="#c" transform="matrix(1,0,0,1,85,119.5) translate(0 24.08376736111111)"/><use xlink:href="#d" transform="matrix(1,0,0,1,85,156.5) translate(0 24.08376736111111)"/><use xlink:href="#e" transform="matrix(1,0,0,1,85,193.5) translate(0 24.08376736111111)"/><use xlink:href="#f" transform="matrix(1,0,0,1,85,230.5) translate(0 24.08376736111111)"/><use xlink:href="#g" transform="matrix(1,0,0,1,85,267.5) translate(0 24.08376736111111)"/><use xlink:href="#h" transform="matrix(1,0,0,1,85,304.5) translate(0 24.08376736111111)"/><use xlink:href="#i" transform="matrix(1,0,0,1,85,341.5) translate(0 24.08376736111111)"/><use xlink:href="#j" transform="matrix(1,0,0,1,85,378.5) translate(0 24.08376736111111)"/><path d="M490 46a6 6 0 0 1 6-6h208a6 6 0 0 1 6 6v176a6 6 0 0 1-6 6H496a6 6 0 0 1-6-6z" fill="#fff"/><path d="M490 80v38h220V80" fill="#fff"/><path d="M490 117v38h220v-38" fill="#fff"/><path d="M490 154v38h220v-38" fill="#fff"/><path d="M490 191v31a6 6 0 0 0 6 6h208a6 6 0 0 0 6-6v-31" fill="#fff"/><path d="M490 80h220M490 46a6 6 0 0 1 6-6h208a6 6 0 0 1 6 6v176a6 6 0 0 1-6 6H496a6 6 0 0 1-6-6z" stroke="#000" stroke-width="2" fill="none"/><use xlink:href="#k" transform="matrix(1,0,0,1,500,39.99999930473005) translate(50.911458333333336 28.08376736111111)"/><use xlink:href="#b" transform="matrix(1,0,0,1,495,82.49999930473005) translate(0 24.08376736111111)"/><use xlink:href="#l" transform="matrix(1,0,0,1,495,119.49999930473005) translate(0 24.08376736111111)"/><use xlink:href="#m" transform="matrix(1,0,0,1,495,156.49999930473007) translate(0 24.08376736111111)"/><use xlink:href="#h" transform="matrix(1,0,0,1,495,193.49999930473007) translate(0 24.08376736111111)"/><path d="M469 98.03v.94h-65.58v-.94zm-168 .94v-.94h65.58v.94z" stroke="#3a414a" stroke-width=".05" fill="#3a414a"/><path d="M291.48 98.03h9.04V88.5h.96v20h-.96v-9.53h-9.04v9.53h-.96v-9.53H281v-.94h9.52V88.5h.96zM489 88.92l-18.2 9.1h17.97v.95H470.8l18.2 9.1-.44.86-19.3-9.66v9.23h-.96v-20h.95v9.23l19.3-9.66z" stroke="#3a414a" stroke-width=".05" fill="#3a414a"/><use xlink:href="#n" transform="matrix(1,0,0,1,366.5798332973516,87.74478981399625) translate(0 17.22222222222222)"/><path d="M334.64 209.97H321v-.94h13.64zm114.36 0h-13.64v-.94H449z" stroke="#3a414a" stroke-width=".05" fill="#3a414a"/><path d="M314.38 200l2.75 1.43 2.16 2.16 1.4 2.74.52 3.16-.5 3.16-1.43 2.75-2.17 2.17-2.75 1.42-3.16.5-3.16-.5-2.74-1.43-2.17-2.16-1.42-2.74-.5-3.16.5-3.16 1.42-2.75 2.17-2.17 2.74-1.42 3.16-.5zm-33.16 19.5l20-10m-20-10l20 10m0 0h-20" fill="#fff"/><path d="M314.54 199.55l2.87 1.5 2.28 2.26 1.5 2.9.52 3.3-.53 3.3-1.5 2.9-2.26 2.26-2.86 1.5-3.32.52-3.3-.53-2.9-1.5-2.25-2.26-1.5-2.9-.4-2.6-19.43 9.73-.43-.86 18.2-9.1h-17.98v-.94h18l-18.2-9.1.42-.86 19.42 9.72.42-2.6 1.5-2.9 2.25-2.26 2.88-1.5 3.32-.52zm-6.33.92l-2.6 1.35-2.06 2.06-1.35 2.6-.5 3.02.5 3 1.34 2.62 2.06 2.06 2.6 1.35 3.02.5 3-.5 2.63-1.35 2.06-2.06 1.36-2.6.48-3.02-.48-3-1.35-2.62-2.05-2.06-2.62-1.35-3-.5z" stroke="#3a414a" stroke-width=".05" fill="#3a414a"/><path d="M461.94 200l2.74 1.43 2.17 2.16 1.42 2.74.5 3.16-.5 3.16-1.42 2.75-2.17 2.17-2.74 1.42-3.17.5-3.15-.5-2.75-1.43-2.17-2.16-1.4-2.74-.53-3.16.52-3.16 1.4-2.75 2.17-2.17 2.75-1.42 3.15-.5zm26.83 19.5l-20-10m20-10l-20 10m0 0h20" fill="#fff"/><path d="M462.1 199.55l2.86 1.5 2.27 2.26 1.5 2.9.4 2.6 19.43-9.73.43.86-18.2 9.1h17.97v.94H470.8l18.2 9.1-.44.86-19.42-9.72-.42 2.6-1.5 2.9-2.26 2.26-2.87 1.5-3.33.52-3.3-.53-2.88-1.5-2.28-2.26-1.5-2.9-.53-3.3.53-3.3 1.5-2.9 2.26-2.26 2.86-1.5 3.3-.52zm-6.34.92l-2.6 1.35-2.07 2.06-1.36 2.6-.48 3.02.48 3 1.35 2.62 2.05 2.06 2.62 1.35 3 .5 3.02-.5 2.6-1.35 2.06-2.06 1.35-2.6.5-3.02-.5-3-1.34-2.62-2.06-2.06-2.6-1.35-3.03-.5z" stroke="#3a414a" stroke-width=".05" fill="#3a414a"/><use xlink:href="#o" transform="matrix(1,0,0,1,334.64411631650904,198.7447766721505) translate(0 17.22222222222222)"/><use xlink:href="#p" transform="matrix(1,0,0,1,334.64411631650904,198.7447766721505) translate(83.47222222222221 17.22222222222222)"/><path d="M790.48 92.52l-.08 1-.24.98-.4.94-.52.87-.66.78-.77.66-.86.53-.94.4-1 .23-.98.07H751v-.94h32.98l.88-.07.85-.2.8-.34.75-.45.66-.56.57-.65.45-.74.33-.8.2-.84.07-.88V10.75h.96zM601 .47v-.94h131.87v.94z" stroke="#3a414a" stroke-width=".05" fill="#3a414a"/><path d="M744.38 89l2.75 1.43 2.16 2.16 1.4 2.74.52 3.16-.5 3.16-1.43 2.75-2.17 2.17-2.75 1.42-3.16.5-3.16-.5-2.74-1.43-2.17-2.16-1.42-2.74-.5-3.16.5-3.16 1.42-2.75 2.17-2.17 2.74-1.42 3.16-.5zm-33.16 19.5l20-10m-20-10l20 10m0 0h-20" fill="#fff"/><path d="M744.53 88.55l2.88 1.5 2.28 2.26 1.5 2.9.53 3.3-.53 3.3-1.5 2.9-2.26 2.26-2.87 1.5-3.3.52-3.32-.53-2.87-1.5-2.26-2.26-1.5-2.9-.4-2.6-19.43 9.72-.43-.84 18.2-9.1h-17.98v-.95h18l-18.2-9.1.42-.86 19.42 9.72.42-2.6 1.5-2.9 2.25-2.26 2.88-1.5 3.32-.52zm-6.32.92l-2.6 1.35-2.06 2.06-1.35 2.6-.5 3.02.5 3 1.34 2.62 2.06 2.06 2.6 1.35 3.02.5 3-.5 2.63-1.35 2.06-2.06 1.36-2.6.48-3.02-.48-3-1.35-2.62-2.05-2.06-2.62-1.35-3-.5z" stroke="#3a414a" stroke-width=".05" fill="#3a414a"/><path d="M603.93-.7l2.75 1.42 2.17 2.16 1.4 2.75.52 3.16-.5 3.15-1.42 2.74-2.17 2.16-2.75 1.42-3.15.5-3.17-.5-2.73-1.42-2.17-2.17-1.42-2.75-.5-3.16.34-2.6 1-2.4 1.58-2.08 2.08-1.6 2.4-1 2.6-.33zM610 39.03l-9.48-20.25m-.5 20l.5-20m-10.5 19.74l10.5-19.74" fill="#fff"/><path d="M604.1-1.16l2.86 1.5 2.27 2.26 1.5 2.87.53 3.32-.54 3.3-1.5 2.88-2.26 2.27-2.87 1.48-2.87.46 9.2 19.63-.86.4-8.63-18.42-.46 18-.95-.04.46-17.98-9.57 17.96-.84-.44 10.2-19.2-2.34-.37-2.88-1.48-2.26-2.27-1.5-2.88-.53-3.3.35-2.73 1.04-2.52 1.66-2.17 2.18-1.67 2.52-1.04 2.72-.35zm-5.8.75l-2.28.94-1.98 1.5-1.52 2-.94 2.28-.33 2.46.5 3.02 1.34 2.6 2.05 2.07 2.62 1.35 3 .48 3-.48 2.63-1.35 2.06-2.06 1.35-2.6.5-3-.5-3.02-1.34-2.62-2.06-2.06-2.62-1.35-3-.48z" stroke="#3a414a" stroke-width=".05" fill="#3a414a"/><use xlink:href="#q" transform="matrix(1,0,0,1,732.8741420296719,-10.755208333333332) translate(0 17.22222222222222)"/><path d="M500 477a6 6 0 0 1 6-6h188a6 6 0 0 1 6 6v287a6 6 0 0 1-6 6H506a6 6 0 0 1-6-6z" fill="#fff"/><path d="M500 511v38h200v-38" fill="#fff"/><path d="M500 548v38h200v-38" fill="#fff"/><path d="M500 585v38h200v-38" fill="#fff"/><path d="M500 622v38h200v-38" fill="#fff"/><path d="M500 659v38h200v-38" fill="#fff"/><path d="M500 696v38h200v-38" fill="#fff"/><path d="M500 733v31a6 6 0 0 0 6 6h188a6 6 0 0 0 6-6v-31" fill="#fff"/><path d="M500 511h200M500 477a6 6 0 0 1 6-6h188a6 6 0 0 1 6 6v287a6 6 0 0 1-6 6H506a6 6 0 0 1-6-6z" stroke="#000" stroke-width="2" fill="none"/><use xlink:href="#r" transform="matrix(1,0,0,1,510,471) translate(53.83463541666667 28.08376736111111)"/><use xlink:href="#b" transform="matrix(1,0,0,1,505,513.5) translate(0 24.08376736111111)"/><use xlink:href="#s" transform="matrix(1,0,0,1,505,550.5) translate(0 24.08376736111111)"/><use xlink:href="#t" transform="matrix(1,0,0,1,505,587.5) translate(0 24.08376736111111)"/><use xlink:href="#u" transform="matrix(1,0,0,1,505,624.5) translate(0 24.08376736111111)"/><use xlink:href="#m" transform="matrix(1,0,0,1,505,661.5) translate(0 24.08376736111111)"/><use xlink:href="#v" transform="matrix(1,0,0,1,505,698.5) translate(0 24.08376736111111)"/><use xlink:href="#h" transform="matrix(1,0,0,1,505,735.5) translate(0 24.08376736111111)"/><path d="M353.34 715.9H321V715h32.34zm125.66 0h-52.34V715H479z" stroke="#3a414a" stroke-width=".05" fill="#3a414a"/><path d="M314.38 705.95l2.75 1.42 2.16 2.16 1.4 2.75.52 3.16-.5 3.16-1.43 2.75-2.17 2.16-2.75 1.43-3.16.5-3.16-.5-2.74-1.42-2.17-2.15-1.42-2.75-.5-3.16.5-3.16 1.42-2.75 2.17-2.16 2.74-1.42 3.16-.5zm-33.16 19.5l20-10m-20-10l20 10m0 0h-20" fill="#fff"/><path d="M314.54 705.5l2.87 1.48 2.28 2.27 1.5 2.88.52 3.3-.53 3.32-1.5 2.88-2.26 2.27-2.86 1.5-3.32.52-3.3-.53-2.9-1.5-2.25-2.27-1.5-2.88-.4-2.6-19.43 9.72-.43-.86 18.2-9.1h-17.98V715h18l-18.2-9.1.42-.86 19.42 9.73.42-2.6 1.5-2.88 2.25-2.27 2.88-1.5 3.32-.52zm-6.33.9l-2.6 1.36-2.06 2.06-1.35 2.6-.5 3.02.5 3 1.34 2.62 2.06 2.06 2.6 1.35 3.02.5 3-.5 2.63-1.35 2.06-2.06 1.36-2.6.48-3.02-.48-3-1.35-2.62-2.05-2.06-2.62-1.35-3-.48zM479.47 714.97h9.05v-9.53h.95v9.52H499v.95h-9.53v9.54h-.95v-9.53h-9.05v9.54h-.95v-20h.95z" stroke="#3a414a" stroke-width=".05" fill="#3a414a"/><use xlink:href="#w" transform="matrix(1,0,0,1,353.3377013556905,704.6847135713612) translate(0 17.22222222222222)"/><use xlink:href="#p" transform="matrix(1,0,0,1,353.3377013556905,704.6847135713612) translate(56.08506944444445 17.22222222222222)"/><path d="M390.48 522.57l.06.88.2.85.34.8.45.74.56.66.65.56.74.45.8.34.84.2.88.08H459v.95h-63.02l-1-.08-.98-.25-.94-.4-.87-.52-.78-.66-.66-.77-.53-.87-.4-.94-.23-1-.08-1v-49.46h.96zM385 395.77l1 .25.94.4.87.52.78.66.66.77.53.87.4.94.23 1 .08.98v49.47h-.96V402.2l-.06-.88-.2-.85-.34-.8-.45-.74-.56-.66-.65-.56-.74-.44-.8-.33-.84-.2-.88-.08H321v-.94h63.02z" stroke="#3a414a" stroke-width=".05" fill="#3a414a"/><path d="M314.38 386.7l2.75 1.4 2.16 2.17 1.4 2.75.52 3.16-.5 3.16-1.43 2.75-2.17 2.15-2.75 1.42-3.16.5-3.16-.5-2.74-1.42-2.17-2.16-1.42-2.76-.5-3.16.5-3.16 1.42-2.75 2.17-2.16 2.74-1.4 3.16-.52zm-33.16 19.48l20-10m-20-10l20 10m0 0h-20" fill="#fff"/><path d="M314.54 386.23l2.87 1.5 2.28 2.26 1.5 2.87.52 3.3-.53 3.32-1.5 2.87-2.26 2.27-2.86 1.5-3.32.52-3.3-.53-2.9-1.5-2.25-2.26-1.5-2.88-.4-2.6-19.43 9.7-.43-.85 18.2-9.1h-17.98v-.94h18l-18.2-9.1.42-.85 19.42 9.72.42-2.6 1.5-2.88 2.25-2.28 2.88-1.5 3.32-.52zm-6.33.92l-2.6 1.35-2.06 2.06-1.35 2.6-.5 3.02.5 3 1.34 2.62 2.06 2.06 2.6 1.35 3.02.5 3-.5 2.63-1.34 2.06-2.06 1.36-2.6.48-3.02-.48-3-1.35-2.62-2.05-2.06-2.62-1.35-3-.5z" stroke="#3a414a" stroke-width=".05" fill="#3a414a"/><path d="M471.94 519.1l2.74 1.42 2.17 2.16 1.42 2.75.5 3.16-.5 3.15-1.42 2.75-2.17 2.16-2.74 1.42-3.16.5-3.16-.5-2.75-1.42-2.16-2.16-1.4-2.75-.52-3.16.5-3.17 1.43-2.75 2.17-2.16 2.75-1.42 3.16-.5zm26.84 19.5l-20-10m20-10l-20 10m0 0h20" fill="#fff"/><path d="M472.1 518.64l2.87 1.5 2.26 2.26 1.5 2.88.4 2.6 19.43-9.72.43.86-18.2 9.1h17.98v.95h-18l18.2 9.1-.42.85-19.42-9.72-.42 2.6-1.5 2.88-2.25 2.27-2.88 1.5-3.32.52-3.3-.53-2.9-1.5-2.26-2.26-1.5-2.88-.52-3.3.53-3.32 1.5-2.88 2.26-2.27 2.86-1.5 3.32-.52zm-6.33.92l-2.62 1.35-2.06 2.07-1.36 2.6-.48 3.02.48 3 1.35 2.6 2.05 2.07 2.62 1.35 3 .5 3.02-.5 2.6-1.35 2.06-2.06 1.35-2.6.5-3-.5-3.02-1.34-2.6-2.06-2.07-2.6-1.34-3.02-.5z" stroke="#3a414a" stroke-width=".05" fill="#3a414a"/><use xlink:href="#x" transform="matrix(1,0,0,1,374.93058330013497,451.6297770725101) translate(0 17.22222222222222)"/><path d="M600.48 430h-.96v-24.58h.96zm0-46.1h-.96V249h.96z" stroke="#3a414a" stroke-width=".05" fill="#3a414a"/><path d="M600.48 238.53H610v.94h-9.52v9.06H610v.94h-20v-.94h9.52v-9.06H590v-.94h9.52V229h.96z" stroke="#3a414a" stroke-width=".05" fill="#3a414a"/><path d="M603.16 430.3l2.75 1.4 2.17 2.17 1.42 2.75.5 3.16-.5 3.16-1.43 2.74-2.16 2.17-2.74 1.42-3.16.5-3.16-.5-2.75-1.42-2.17-2.17-1.42-2.74-.5-3.16.5-3.16 1.43-2.75 2.16-2.16 2.74-1.4 3.16-.52zM590 469.77l10-20m10 20l-10-20m0 20v-20" fill="#fff"/><path d="M603.3 429.83l2.9 1.5 2.26 2.26 1.5 2.86.52 3.32-.53 3.3-1.5 2.9-2.26 2.25-2.9 1.5-2.6.4 9.72 19.43-.84.43-9.1-18.2v17.98h-.96v-18l-9.1 18.2-.84-.42 9.7-19.42-2.6-.42-2.87-1.5-2.26-2.25-1.5-2.88-.52-3.32.53-3.3 1.5-2.9 2.26-2.26 2.9-1.5 3.3-.52zm-6.3.9l-2.62 1.36-2.06 2.05-1.35 2.62-.5 3 .5 3.02 1.35 2.6 2.06 2.06 2.6 1.35 3.02.5 3-.5 2.62-1.34 2.06-2.06 1.35-2.6.5-3.02-.5-3-1.35-2.63-2.06-2.06-2.6-1.36-3.02-.48z" stroke="#3a414a" stroke-width=".05" fill="#3a414a"/><use xlink:href="#y" transform="matrix(1,0,0,1,570.1519097222222,383.91145833333377) translate(0 17.22222222222222)"/><path d="M900 194.37a6 6 0 0 1 6-6h188a6 6 0 0 1 6 6v176a6 6 0 0 1-6 6H906a6 6 0 0 1-6-6z" fill="#fff"/><path d="M900 228.37v38h200v-38" fill="#fff"/><path d="M900 265.37v38h200v-38" fill="#fff"/><path d="M900 302.37v38h200v-38" fill="#fff"/><path d="M900 339.37v31a6 6 0 0 0 6 6h188a6 6 0 0 0 6-6v-31" fill="#fff"/><path d="M900 228.37h200M900 194.37a6 6 0 0 1 6-6h188a6 6 0 0 1 6 6v176a6 6 0 0 1-6 6H906a6 6 0 0 1-6-6z" stroke="#000" stroke-width="2" fill="none"/><use xlink:href="#z" transform="matrix(1,0,0,1,910,188.37000447154185) translate(47.19943576388889 28.08376736111111)"/><use xlink:href="#b" transform="matrix(1,0,0,1,905,230.87000447154185) translate(0 24.08376736111111)"/><use xlink:href="#l" transform="matrix(1,0,0,1,905,267.87000447154185) translate(0 24.08376736111111)"/><use xlink:href="#m" transform="matrix(1,0,0,1,905,304.87000447154185) translate(0 24.08376736111111)"/><use xlink:href="#h" transform="matrix(1,0,0,1,905,341.87000447154185) translate(0 24.08376736111111)"/><path d="M805.48 240.5l.06.88.2.84.34.8.45.74.56.66.65.56.74.46.8.33.84.2.88.07H859v.95h-48.02l-1-.1-.98-.22-.94-.4-.87-.53-.78-.66-.66-.78-.53-.86-.4-.94-.23-1-.08-1v-1.4h.96zM800 209.8l1 .23.94.4.87.52.78.66.66.78.53.87.4.94.23.97.08 1v1.43h-.96v-1.4l-.06-.88-.2-.84-.34-.8-.45-.74-.56-.66-.65-.56-.74-.46-.8-.33-.84-.2-.88-.07H731v-.95h68.02z" stroke="#3a414a" stroke-width=".05" fill="#3a414a"/><path d="M721.48 209.7h9.04v-9.5h.96v20h-.96v-9.54h-9.04v9.53h-.96v-9.54H711v-.95h9.52v-9.5h.96z" stroke="#3a414a" stroke-width=".05" fill="#3a414a"/><path d="M871.94 237.03l2.74 1.4 2.17 2.18 1.42 2.75.5 3.16-.33 2.6-1 2.4-1.6 2.1-2.07 1.58-2.4 1-2.6.33-2.6-.32-2.4-1-2.06-1.6-1.6-2.07-.98-2.4-.34-2.6.5-3.15 1.43-2.74 2.17-2.16 2.75-1.4 3.16-.53zm26.84 19.48l-20-10m20-10l-20 10m0 0h20" fill="#fff"/><path d="M872.1 236.57l2.87 1.5 2.26 2.25 1.5 2.88.4 2.6 19.43-9.7.43.84-18.2 9.1h17.98v.95h-18l18.2 9.1-.42.84-19.4-9.7-.26 2-1.04 2.5-1.67 2.2-2.2 1.66-2.5 1.04-2.72.35-2.72-.36-2.52-1.04-2.17-1.67-1.67-2.18-1.05-2.52-.35-2.72.53-3.3 1.5-2.88 2.26-2.26 2.87-1.5 3.3-.53zm-6.33.9l-2.62 1.36-2.06 2.06-1.36 2.6-.48 3.02.32 2.47.94 2.27 1.52 1.98 1.98 1.52 2.28.94 2.48.34 2.47-.33 2.28-.93 1.98-1.52 1.53-1.98.94-2.28.33-2.48-.5-3.02-1.34-2.6-2.06-2.07-2.6-1.35-3.02-.48z" stroke="#3a414a" stroke-width=".05" fill="#3a414a"/><use xlink:href="#A" transform="matrix(1,0,0,1,777.3611225688866,217.5954783283893) translate(0 17.22222222222222)"/><path d="M1000.48 504h-.96v-32.56h.96zm0-54.07h-.96v-52.56h.96z" stroke="#3a414a" stroke-width=".05" fill="#3a414a"/><path d="M1000.48 386.9h9.52v.95h-9.52v9.04h9.52v.95h-20v-.96h9.52v-9.05H990v-.96h9.52v-9.53h.96z" stroke="#3a414a" stroke-width=".05" fill="#3a414a"/><path d="M1003.16 504.3l2.75 1.4 2.17 2.17 1.42 2.75.5 3.16-.5 3.16-1.43 2.74-2.16 2.17-2.74 1.42-3.16.5-3.16-.5-2.75-1.42-2.17-2.17-1.42-2.74-.5-3.16.5-3.16 1.43-2.75 2.16-2.16 2.74-1.4 3.16-.52zM990 543.77l10-20m10 20l-10-20m0 20v-20" fill="#fff"/><path d="M1003.3 503.83l2.9 1.5 2.26 2.26 1.5 2.86.52 3.32-.53 3.3-1.5 2.9-2.26 2.25-2.9 1.5-2.6.4 9.72 19.43-.84.43-9.1-18.2v17.98h-.96v-18l-9.1 18.2-.84-.42 9.7-19.42-2.6-.42-2.87-1.5-2.26-2.25-1.5-2.88-.52-3.32.53-3.3 1.5-2.9 2.26-2.26 2.9-1.5 3.3-.52zm-6.3.9l-2.62 1.36-2.06 2.05-1.35 2.62-.5 3 .5 3.02 1.35 2.6 2.06 2.06 2.6 1.35 3.02.5 3-.5 2.62-1.34 2.06-2.06 1.35-2.6.5-3.02-.5-3-1.35-2.63-2.06-2.06-2.6-1.36-3.02-.48z" stroke="#3a414a" stroke-width=".05" fill="#3a414a"/><use xlink:href="#B" transform="matrix(1,0,0,1,960.6510416666666,449.9297939024376) translate(0 17.22222222222222)"/><use xlink:href="#C" transform="matrix(1,0,0,1,960.6510416666666,449.9297939024376) translate(62.8125 17.22222222222222)"/><path d="M1180 326a6 6 0 0 1 6-6h188a6 6 0 0 1 6 6v139a6 6 0 0 1-6 6h-188a6 6 0 0 1-6-6z" fill="#fff"/><path d="M1180 360v38h200v-38" fill="#fff"/><path d="M1180 397v38h200v-38" fill="#fff"/><path d="M1180 434v31a6 6 0 0 0 6 6h188a6 6 0 0 0 6-6v-31" fill="#fff"/><path d="M1180 360h200M1180 326a6 6 0 0 1 6-6h188a6 6 0 0 1 6 6v139a6 6 0 0 1-6 6h-188a6 6 0 0 1-6-6z" stroke="#000" stroke-width="2" fill="none"/><use xlink:href="#D" transform="matrix(1,0,0,1,1190,320) translate(33.32139756944445 28.08376736111111)"/><use xlink:href="#E" transform="matrix(1,0,0,1,1185,362.5) translate(0 24.08376736111111)"/><use xlink:href="#F" transform="matrix(1,0,0,1,1185,399.5) translate(0 24.08376736111111)"/><use xlink:href="#G" transform="matrix(1,0,0,1,1185,436.5) translate(0 24.08376736111111)"/><path d="M1275 135.12l1 .23.94.4.87.52.78.66.66.78.53.87.4.94.23 1 .07 1V279h-.94V141.53l-.07-.88-.2-.84-.34-.8-.45-.73-.56-.66-.65-.56-.74-.45-.8-.34-.84-.2-.88-.07h-65.18v-.96h65.22zM731 136v-.96h433.57v.95z" stroke="#3a414a" stroke-width=".05" fill="#3a414a"/><path d="M1283.16 279.3l2.75 1.4 2.17 2.17 1.42 2.75.5 3.16-.5 3.16-1.43 2.74-2.16 2.17-2.74 1.42-3.16.5-3.16-.5-2.75-1.42-2.17-2.17-1.42-2.74-.5-3.16.5-3.16 1.43-2.75 2.16-2.16 2.74-1.4 3.16-.52zM1270 318.77l10-20m10 20l-10-20m0 20v-20" fill="#fff"/><path d="M1283.3 278.83l2.9 1.5 2.26 2.26 1.5 2.86.52 3.32-.53 3.3-1.5 2.9-2.26 2.25-2.9 1.5-2.6.4 9.72 19.43-.85.43-9.1-18.2v17.98h-.94v-18l-9.1 18.2-.86-.42 9.72-19.42-2.6-.42-2.9-1.5-2.26-2.25-1.5-2.88-.52-3.32.53-3.3 1.5-2.9 2.26-2.26 2.9-1.5 3.3-.52zm-6.3.9l-2.62 1.36-2.06 2.05-1.35 2.62-.5 3 .5 3.02 1.35 2.6 2.06 2.06 2.6 1.35 3.02.5 3-.5 2.62-1.34 2.06-2.06 1.35-2.6.5-3.02-.5-3-1.35-2.63-2.06-2.06-2.6-1.36-3.02-.48zM721.48 135.04h9.04v-9.53h.96v20h-.96V136h-9.04v9.5h-.96V136H711v-.96h9.52v-9.53h.96z" stroke="#3a414a" stroke-width=".05" fill="#3a414a"/><use xlink:href="#H" transform="matrix(1,0,0,1,1164.5686889689584,124.75842666494246) translate(0 17.22222222222222)"/><path d="M1241.43 753.3H721v-.96h520.43zm39.04-11.25h-.94V512h.94z" stroke="#3a414a" stroke-width=".05" fill="#3a414a"/><path d="M1283.16 492.73l2.75 1.42 2.17 2.17 1.42 2.74.5 3.16-.5 3.16-1.43 2.75-2.16 2.16-2.74 1.4-3.16.52-3.16-.5-2.75-1.43-2.17-2.17-1.42-2.75-.5-3.16.5-3.16 1.43-2.74 2.16-2.17 2.74-1.42 3.16-.5zm6.84-20.5l-10 20m-10-20l10 20m0-20v20" fill="#fff"/><path d="M1290.42 472.44l-9.7 19.42 2.6.42 2.87 1.5 2.26 2.25 1.5 2.88.52 3.32-.53 3.3-1.5 2.9-2.26 2.26-2.9 1.5-3.3.53-3.3-.53-2.9-1.5-2.26-2.26-1.5-2.86-.52-3.32.53-3.3 1.5-2.9 2.26-2.25 2.9-1.5 2.6-.4-9.72-19.43.85-.43 9.1 18.2v-17.98h.94v18l9.1-18.2zM1277 493.2l-2.62 1.34-2.06 2.06-1.35 2.6-.5 3.02.5 3 1.35 2.63 2.06 2.06 2.6 1.36 3.02.48 3-.48 2.62-1.35 2.06-2.05 1.35-2.62.5-3-.5-3.02-1.35-2.6-2.06-2.06-2.6-1.35-3.02-.5zM711.48 752.34h9.04v-9.53h.96v20h-.96v-9.5h-9.04v9.5h-.96v-9.5H701v-.96h9.52v-9.53h.96z" stroke="#3a414a" stroke-width=".05" fill="#3a414a"/><use xlink:href="#I" transform="matrix(1,0,0,1,1241.430206426106,742.0547865590337) translate(0 17.22222222222222)"/><path d="M1450.47 447.1l-.07.98-.24 1-.4.93-.52.88-.66.77-.77.66-.86.54-.94.4-1 .23-.98.07H1421v-.94h22.98l.88-.07.85-.2.8-.34.75-.46.66-.56.57-.66.45-.74.33-.8.2-.85.08-.88v-20.6h.94zm-5.46-69.17l1 .24.94.4.87.52.78.65.66.77.53.87.4.93.23 1 .07.98v20.64h-.94v-20.6l-.07-.87-.2-.85-.34-.8-.45-.74-.56-.66-.65-.56-.74-.45-.8-.32-.84-.2-.88-.07H1401v-.94h43.02z" stroke="#3a414a" stroke-width=".05" fill="#3a414a"/><path d="M1391.47 377.86h9.06v-9.53h.94v20h-.94v-9.52h-9.06v9.53h-.94v-9.52H1381v-.94h9.53v-9.53h.94z" stroke="#3a414a" stroke-width=".05" fill="#3a414a"/><path d="M1414.38 443.58l2.75 1.42 2.16 2.16 1.4 2.75.52 3.17-.5 3.16-1.43 2.75-2.17 2.16-2.75 1.42-3.16.5-3.16-.5-2.74-1.42-2.17-2.16-1.42-2.75-.5-3.16.5-3.16 1.42-2.74 2.17-2.16 2.74-1.42 3.16-.5zm-33.16 19.5l20-10m-20-10l20 10m0 0h-20" fill="#fff"/><path d="M1414.54 443.12l2.87 1.5 2.28 2.26 1.5 2.88.52 3.3-.53 3.32-1.5 2.88-2.26 2.27-2.87 1.5-3.3.52-3.32-.53-2.87-1.5-2.26-2.26-1.5-2.88-.4-2.6-19.43 9.72-.43-.86 18.2-9.1h-17.98v-.94h18l-18.2-9.1.42-.86 19.42 9.72.42-2.6 1.5-2.88 2.25-2.27 2.88-1.48 3.32-.53zm-6.33.92l-2.6 1.35-2.06 2.05-1.35 2.6-.5 3.02.5 3 1.34 2.62 2.06 2.05 2.6 1.35 3.02.5 3-.5 2.63-1.35 2.06-2.06 1.36-2.62.48-3-.48-3.02-1.35-2.6-2.05-2.07-2.62-1.36-3-.5z" stroke="#3a414a" stroke-width=".05" fill="#3a414a"/><use xlink:href="#J" transform="matrix(1,0,0,1,1417.1223958333333,404.94476763566337) translate(0 17.22222222222222)"/><use xlink:href="#p" transform="matrix(1,0,0,1,1417.1223958333333,404.94476763566337) translate(48.515625 17.22222222222222)"/><path d="M377.96 321.73H321v-.95h56.96zm481.04 0H486.04v-.95H859z" stroke="#3a414a" stroke-width=".05" fill="#3a414a"/><path d="M314.38 311.76l2.75 1.42 2.16 2.17 1.4 2.74.52 3.15-.5 3.17-1.43 2.74-2.17 2.17-2.75 1.42-3.16.5-3.16-.5-2.74-1.42-2.17-2.17-1.42-2.74-.5-3.17.5-3.16 1.42-2.75 2.17-2.17 2.74-1.42 3.16-.5zm-33.16 19.5l20-10m-20-10l20 10m0 0h-20" fill="#fff"/><path d="M314.54 311.3l2.87 1.5 2.28 2.26 1.5 2.88.52 3.3-.53 3.33-1.5 2.88-2.26 2.26-2.86 1.5-3.32.54-3.3-.54-2.9-1.5-2.25-2.25-1.5-2.88-.4-2.6-19.43 9.7-.43-.84 18.2-9.1h-17.98v-.95h18l-18.2-9.1.42-.85 19.42 9.7.42-2.6 1.5-2.87 2.25-2.26 2.88-1.5 3.32-.53zm-6.33.92l-2.6 1.35-2.06 2.06-1.35 2.62-.5 3 .5 3 1.34 2.63 2.06 2.06 2.6 1.35 3.02.47 3-.48 2.63-1.36 2.06-2.06 1.36-2.62.48-3-.48-3-1.35-2.63-2.05-2.06-2.62-1.35-3-.48z" stroke="#3a414a" stroke-width=".05" fill="#3a414a"/><path d="M871.94 311.76l2.74 1.42 2.17 2.17 1.42 2.74.5 3.15-.5 3.17-1.42 2.74-2.17 2.17-2.74 1.42-3.16.5-3.16-.5-2.75-1.42-2.16-2.17-1.4-2.74-.52-3.17.5-3.16 1.43-2.75 2.17-2.17 2.75-1.42 3.16-.5zm26.84 19.5l-20-10m20-10l-20 10m0 0h20" fill="#fff"/><path d="M872.1 311.3l2.87 1.5 2.26 2.26 1.5 2.88.4 2.6 19.43-9.7.43.84-18.2 9.1h17.98v.95h-18l18.2 9.1-.42.85-19.42-9.7-.42 2.6-1.5 2.87-2.25 2.26-2.88 1.5-3.32.54-3.3-.54-2.9-1.5-2.26-2.25-1.5-2.88-.53-3.3.53-3.33 1.5-2.88 2.26-2.26 2.87-1.5 3.3-.53zm-6.33.92l-2.62 1.35-2.06 2.06-1.36 2.62-.48 3 .48 3 1.35 2.63 2.05 2.06 2.62 1.35 3 .47 3.02-.48 2.6-1.36 2.06-2.06 1.35-2.62.5-3-.5-3-1.34-2.63-2.06-2.06-2.6-1.35-3.02-.48z" stroke="#3a414a" stroke-width=".05" fill="#3a414a"/><use xlink:href="#K" transform="matrix(1,0,0,1,377.959201388889,310.49976838212086) translate(0 17.22222222222222)"/><use xlink:href="#p" transform="matrix(1,0,0,1,377.959201388889,310.49976838212086) translate(90.8420138888889 17.22222222222222)"/><path d="M80 588a6 6 0 0 1 6-6h188a6 6 0 0 1 6 6v176a6 6 0 0 1-6 6H86a6 6 0 0 1-6-6z" fill="#fff"/><path d="M80 622v38h200v-38" fill="#fff"/><path d="M80 659v38h200v-38" fill="#fff"/><path d="M80 696v38h200v-38" fill="#fff"/><path d="M80 733v31a6 6 0 0 0 6 6h188a6 6 0 0 0 6-6v-31" fill="#fff"/><path d="M80 622h200M80 588a6 6 0 0 1 6-6h188a6 6 0 0 1 6 6v176a6 6 0 0 1-6 6H86a6 6 0 0 1-6-6z" stroke="#000" stroke-width="2" fill="none"/><use xlink:href="#L" transform="matrix(1,0,0,1,90,582) translate(36.48437500000001 28.08376736111111)"/><use xlink:href="#M" transform="matrix(1,0,0,1,85,624.5) translate(0 24.08376736111111)"/><use xlink:href="#N" transform="matrix(1,0,0,1,85,661.5) translate(0 24.08376736111111)"/><use xlink:href="#O" transform="matrix(1,0,0,1,85,698.5) translate(0 24.08376736111111)"/><use xlink:href="#P" transform="matrix(1,0,0,1,85,735.5) translate(0 24.08376736111111)"/><path d="M180.47 541h-.94v-32.75h.94zm0-54.25h-.94V434h.94z" stroke="#3a414a" stroke-width=".05" fill="#3a414a"/><path d="M180.47 423.52H190v.96h-9.53v9.04H190v.96h-20v-.96h9.53v-9.04H170v-.96h9.53V414h.94z" stroke="#3a414a" stroke-width=".05" fill="#3a414a"/><path d="M183.16 541.3l2.75 1.4 2.17 2.17 1.42 2.75.5 3.15-.5 3.17-1.43 2.74-2.16 2.17-2.74 1.42-3.16.5-3.16-.5-2.75-1.42-2.17-2.17-1.42-2.74-.5-3.17.5-3.15 1.43-2.75 2.16-2.16 2.74-1.42 3.16-.5zM170 580.76l10-20m10 20l-10-20m0 20v-20" fill="#fff"/><path d="M183.3 540.83l2.9 1.5 2.26 2.26 1.5 2.86.52 3.3-.53 3.33-1.5 2.87-2.26 2.26-2.9 1.5-2.6.4 9.73 19.43-.86.43-9.1-18.2v17.98h-.94v-18l-9.1 18.2-.86-.42 9.72-19.42-2.6-.42-2.9-1.5-2.26-2.25-1.5-2.88-.52-3.33.53-3.3 1.5-2.88 2.26-2.28 2.9-1.5 3.3-.53zm-6.3.9l-2.62 1.36-2.06 2.05-1.35 2.62-.5 3 .5 3.02 1.35 2.6 2.06 2.06 2.6 1.35 3.02.5 3-.5 2.62-1.34 2.06-2.06 1.35-2.6.5-3.02-.5-3-1.35-2.63-2.06-2.06-2.6-1.36-3.02-.48z" stroke="#3a414a" stroke-width=".05" fill="#3a414a"/><use xlink:href="#Q" transform="matrix(1,0,0,1,151.61458333333334,486.7447916666667) translate(0 17.22222222222222)"/><path d="M900 551a6 6 0 0 1 6-6h188a6 6 0 0 1 6 6v139a6 6 0 0 1-6 6H906a6 6 0 0 1-6-6z" fill="#fff"/><path d="M900 585v38h200v-38" fill="#fff"/><path d="M900 622v38h200v-38" fill="#fff"/><path d="M900 659v31a6 6 0 0 0 6 6h188a6 6 0 0 0 6-6v-31" fill="#fff"/><path d="M900 585h200M900 551a6 6 0 0 1 6-6h188a6 6 0 0 1 6 6v139a6 6 0 0 1-6 6H906a6 6 0 0 1-6-6z" stroke="#000" stroke-width="2" fill="none"/><use xlink:href="#R" transform="matrix(1,0,0,1,910,545) translate(33.39192708333334 28.08376736111111)"/><use xlink:href="#S" transform="matrix(1,0,0,1,905,587.5) translate(0 24.08376736111111)"/><use xlink:href="#T" transform="matrix(1,0,0,1,905,624.5) translate(0 24.08376736111111)"/><use xlink:href="#U" transform="matrix(1,0,0,1,905,661.5) translate(0 24.08376736111111)"/><path d="M754.4 641.17H721v-.94h33.4zm104.6-.2l-13.4.02v-.96H859z" stroke="#3a414a" stroke-width=".05" fill="#3a414a"/><path d="M711.48 640.23h9.04v-9.53h.96v20h-.96v-9.53h-9.04v9.53h-.96v-9.53H701v-.94h9.52v-9.53h.96z" stroke="#3a414a" stroke-width=".05" fill="#3a414a"/><path d="M871.94 631l2.74 1.43 2.17 2.16 1.42 2.74.5 3.16-.5 3.16-1.42 2.75-2.17 2.17-2.74 1.42-3.16.5-3.16-.5-2.75-1.43-2.16-2.16-1.4-2.74-.52-3.16.5-3.16 1.43-2.75 2.17-2.17 2.75-1.42 3.16-.5zm26.84 19.5l-20-10m20-10l-20 10m0 0h20" fill="#fff"/><path d="M872.1 630.55l2.87 1.5 2.26 2.26 1.5 2.9.4 2.6 19.43-9.72.43.84-18.2 9.1h17.98v.96h-18l18.2 9.1-.42.84-19.42-9.7-.42 2.6-1.5 2.87-2.25 2.26-2.88 1.5-3.32.52-3.3-.53-2.9-1.5-2.26-2.26-1.5-2.9-.53-3.3.53-3.3 1.5-2.9 2.26-2.26 2.87-1.5 3.3-.52zm-6.33.92l-2.62 1.35-2.06 2.06-1.36 2.6-.48 3.02.48 3 1.35 2.62 2.05 2.06 2.62 1.35 3 .5 3.02-.5 2.6-1.35 2.06-2.06 1.35-2.6.5-3.02-.5-3-1.34-2.62-2.06-2.06-2.6-1.35-3.02-.5z" stroke="#3a414a" stroke-width=".05" fill="#3a414a"/><g><use xlink:href="#V" transform="matrix(1,0,0,1,754.3880315467402,629.8447873704991) translate(0 17.22222222222222)"/><use xlink:href="#W" transform="matrix(1,0,0,1,754.3880315467402,629.8447873704991) translate(73.98437500000001 17.22222222222222)"/></g><defs><path d="M763 24c-353 0-583-224-583-531v-983h190v968c0 214 149 370 393 370 243 0 391-156 391-370v-968h190v983c0 307-230 531-581 531" id="X"/><path d="M538 24C308 24 148-78 108-271l171-41c32 123 123 178 257 178 156 0 256-77 256-169 0-77-54-128-164-154l-186-44c-203-48-300-148-300-305 0-192 176-326 414-326 230 0 351 112 402 269l-163 42c-31-80-94-158-238-158-133 0-233 69-233 162 0 83 57 129 188 160l169 40c203 48 298 149 298 302 0 196-179 339-441 339" id="Y"/><path d="M628 24c-324 0-524-230-524-574 0-343 198-582 503-582 237 0 487 146 487 559v75H286c9 234 145 362 343 362 132 0 231-58 273-172l174 48C1024-91 857 24 628 24zM287-650h624c-17-190-120-322-304-322-192 0-309 151-320 322" id="Z"/><path d="M158 0v-1118h174v172h12c41-113 157-188 290-188 26 0 70 2 91 3v181c-11-2-60-10-108-10-161 0-279 109-279 260V0H158" id="aa"/><g id="a"><use transform="matrix(0.010850694444444444,0,0,0.010850694444444444,0,0)" xlink:href="#X"/><use transform="matrix(0.010850694444444444,0,0,0.010850694444444444,16.536458333333332,0)" xlink:href="#Y"/><use transform="matrix(0.010850694444444444,0,0,0.010850694444444444,28.266059027777775,0)" xlink:href="#Z"/><use transform="matrix(0.010850694444444444,0,0,0.010850694444444444,41.22178819444444,0)" xlink:href="#aa"/><use transform="matrix(0.010850694444444444,0,0,0.010850694444444444,49.58767361111111,0)" xlink:href="#Y"/></g><path d="M441-652l13-317-268 171-72-126 282-146-282-146 72-128 268 171-13-317h144l-12 317 267-171 72 128-282 146 282 146-72 126-267-171 12 317H441" id="ab"/><path d="M370-1490V0H180v-1490h190" id="ac"/><path d="M645 0H180v-1490h484c435 0 692 280 692 742 0 466-257 748-711 748zM370-168h263c363 0 539-218 539-580 0-358-176-574-521-574H370v1154" id="ad"/><g id="b"><use transform="matrix(0.010850694444444444,0,0,0.010850694444444444,0,0)" xlink:href="#ab"/><use transform="matrix(0.010850694444444444,0,0,0.010850694444444444,11.1328125,0)" xlink:href="#X"/><use transform="matrix(0.010850694444444444,0,0,0.010850694444444444,27.669270833333332,0)" xlink:href="#X"/><use transform="matrix(0.010850694444444444,0,0,0.010850694444444444,44.205729166666664,0)" xlink:href="#ac"/><use transform="matrix(0.010850694444444444,0,0,0.010850694444444444,50.17361111111111,0)" xlink:href="#ad"/></g><path d="M180 0v-1490h901v168H370v510h643v168H370V0H180" id="ae"/><path d="M158 0v-1118h180V0H158zm91-1301c-68 0-125-53-125-119s57-119 125-119c69 0 126 53 126 119s-57 119-126 119" id="af"/><path d="M598-1118v154H368v674c0 100 37 144 132 144 23 0 62-6 92-12L629-6c-37 13-88 20-134 20-193 0-307-107-307-290v-688H20v-154h168v-266h180v266h230" id="ag"/><path d="M180 0v-1490h224l606 953c40 63 108 177 176 312-27-437-7-821-13-1265h190V0h-226C860-448 622-778 356-1262c27 476 11 792 15 1262H180" id="ah"/><path d="M471 26C259 26 90-98 90-318c0-256 228-303 435-329 202-27 287-16 287-108 0-139-79-219-234-219-161 0-248 86-283 164l-173-57c86-203 278-265 451-265 150 0 419 46 419 395V0H815v-152h-12C765-73 660 26 471 26zm31-159c199 0 310-134 310-271v-155c-30 35-226 55-295 64-131 17-246 59-246 186 0 116 97 176 231 176" id="ai"/><path d="M158 0v-1118h175l1 205c55-151 181-225 313-225 147 0 245 90 285 228 53-141 190-228 352-228 194 0 352 125 352 384V0h-181v-749c0-161-105-225-225-225-151 0-243 103-243 244V0H807v-767c0-124-93-207-219-207-131 0-250 92-250 270V0H158" id="aj"/><g id="c"><use transform="matrix(0.010850694444444444,0,0,0.010850694444444444,0,0)" xlink:href="#ae"/><use transform="matrix(0.010850694444444444,0,0,0.010850694444444444,13.118489583333332,0)" xlink:href="#af"/><use transform="matrix(0.010850694444444444,0,0,0.010850694444444444,18.50043402777778,0)" xlink:href="#aa"/><use transform="matrix(0.010850694444444444,0,0,0.010850694444444444,26.866319444444443,0)" xlink:href="#Y"/><use transform="matrix(0.010850694444444444,0,0,0.010850694444444444,38.595920138888886,0)" xlink:href="#ag"/><use transform="matrix(0.010850694444444444,0,0,0.010850694444444444,45.865885416666664,0)" xlink:href="#ah"/><use transform="matrix(0.010850694444444444,0,0,0.010850694444444444,62.60850694444444,0)" xlink:href="#ai"/><use transform="matrix(0.010850694444444444,0,0,0.010850694444444444,75.08680555555556,0)" xlink:href="#aj"/><use transform="matrix(0.010850694444444444,0,0,0.010850694444444444,94.55295138888889,0)" xlink:href="#Z"/></g><path d="M180 0v-1490h190v1322h690V0H180" id="ak"/><g id="d"><use transform="matrix(0.010850694444444444,0,0,0.010850694444444444,0,0)" xlink:href="#ak"/><use transform="matrix(0.010850694444444444,0,0,0.010850694444444444,12.565104166666666,0)" xlink:href="#ai"/><use transform="matrix(0.010850694444444444,0,0,0.010850694444444444,25.04340277777778,0)" xlink:href="#Y"/><use transform="matrix(0.010850694444444444,0,0,0.010850694444444444,36.77300347222222,0)" xlink:href="#ag"/><use transform="matrix(0.010850694444444444,0,0,0.010850694444444444,44.04296875,0)" xlink:href="#ah"/><use transform="matrix(0.010850694444444444,0,0,0.010850694444444444,60.78559027777778,0)" xlink:href="#ai"/><use transform="matrix(0.010850694444444444,0,0,0.010850694444444444,73.26388888888889,0)" xlink:href="#aj"/><use transform="matrix(0.010850694444444444,0,0,0.010850694444444444,92.73003472222221,0)" xlink:href="#Z"/></g><path d="M613 24c-304 0-509-231-509-576 0-350 205-580 509-580 305 0 511 230 511 580 0 345-206 576-511 576zm0-161c226 0 329-195 329-415 0-222-103-419-329-419-223 0-326 196-326 419 0 220 103 415 326 415" id="al"/><path d="M180 0v-1490h528c311 0 458 177 458 395 0 191-114 278-244 313v14c139 9 302 137 302 371 0 225-148 397-499 397H180zm190-168h350c232 0 321-102 321-231 0-149-120-277-311-277H370v508zm0-668h328c160 0 286-101 286-255 0-129-87-231-280-231H370v486" id="am"/><g id="e"><use transform="matrix(0.010850694444444444,0,0,0.010850694444444444,0,0)" xlink:href="#ad"/><use transform="matrix(0.010850694444444444,0,0,0.010850694444444444,16.03732638888889,0)" xlink:href="#al"/><use transform="matrix(0.010850694444444444,0,0,0.010850694444444444,29.361979166666664,0)" xlink:href="#am"/></g><path d="M180 0v-1490h908v168H370v486h669v168H370v500h727V0H180" id="an"/><path d="M338-1490V0H158v-1490h180" id="ao"/><g id="f"><use transform="matrix(0.010850694444444444,0,0,0.010850694444444444,0,0)" xlink:href="#an"/><use transform="matrix(0.010850694444444444,0,0,0.010850694444444444,13.35720486111111,0)" xlink:href="#aj"/><use transform="matrix(0.010850694444444444,0,0,0.010850694444444444,32.82335069444444,0)" xlink:href="#ai"/><use transform="matrix(0.010850694444444444,0,0,0.010850694444444444,45.30164930555556,0)" xlink:href="#af"/><use transform="matrix(0.010850694444444444,0,0,0.010850694444444444,50.68359375,0)" xlink:href="#ao"/></g><path d="M180 0v-1490h510c348 0 508 209 508 474 0 266-160 477-507 477H370V0H180zm190-706h312c236 0 327-133 327-310 0-176-91-307-329-307H370v617" id="ap"/><path d="M409 0L70-1118h191c89 329 165 560 243 925 75-353 154-601 240-925h192c85 325 161 564 235 922 77-354 157-598 244-922h191L1267 0h-179c-86-307-176-590-250-913C763-588 675-308 588 0H409" id="aq"/><path d="M577 24c-279 0-473-224-473-580 0-354 195-576 474-576 218 0 287 134 324 193h14v-551h180V0H922v-173h-20C865-111 790 24 577 24zm27-161c203 0 314-172 314-421 0-247-108-413-314-413-212 0-317 181-317 413 0 235 108 421 317 421" id="ar"/><g id="g"><use transform="matrix(0.010850694444444444,0,0,0.010850694444444444,0,0)" xlink:href="#ap"/><use transform="matrix(0.010850694444444444,0,0,0.010850694444444444,14.192708333333332,0)" xlink:href="#ai"/><use transform="matrix(0.010850694444444444,0,0,0.010850694444444444,26.671006944444443,0)" xlink:href="#Y"/><use transform="matrix(0.010850694444444444,0,0,0.010850694444444444,38.400607638888886,0)" xlink:href="#Y"/><use transform="matrix(0.010850694444444444,0,0,0.010850694444444444,50.13020833333333,0)" xlink:href="#aq"/><use transform="matrix(0.010850694444444444,0,0,0.010850694444444444,67.91449652777777,0)" xlink:href="#al"/><use transform="matrix(0.010850694444444444,0,0,0.010850694444444444,81.23914930555554,0)" xlink:href="#aa"/><use transform="matrix(0.010850694444444444,0,0,0.010850694444444444,89.23611111111111,0)" xlink:href="#ar"/></g><path d="M783 20c-382 0-661-292-661-764 0-473 279-766 661-766 302 0 548 182 601 489h-190c-42-204-217-313-411-313-268 0-476 208-476 590 0 381 209 588 476 588 195 0 369-110 411-313h190c-52 303-296 489-601 489" id="as"/><path d="M52 0l541-1490h220L1361 0h-200l-149-416H398L254 0H52zm404-582h497c-103-290-145-390-251-756-108 377-145 460-246 756" id="at"/><g id="h"><use transform="matrix(0.010850694444444444,0,0,0.010850694444444444,0,0)" xlink:href="#as"/><use transform="matrix(0.010850694444444444,0,0,0.010850694444444444,16.23263888888889,0)" xlink:href="#aa"/><use transform="matrix(0.010850694444444444,0,0,0.010850694444444444,24.229600694444443,0)" xlink:href="#Z"/><use transform="matrix(0.010850694444444444,0,0,0.010850694444444444,37.40234375,0)" xlink:href="#ai"/><use transform="matrix(0.010850694444444444,0,0,0.010850694444444444,49.88064236111111,0)" xlink:href="#ag"/><use transform="matrix(0.010850694444444444,0,0,0.010850694444444444,56.93359375000001,0)" xlink:href="#Z"/><use transform="matrix(0.010850694444444444,0,0,0.010850694444444444,69.88932291666667,0)" xlink:href="#ar"/><use transform="matrix(0.010850694444444444,0,0,0.010850694444444444,83.49609375,0)" xlink:href="#at"/><use transform="matrix(0.010850694444444444,0,0,0.010850694444444444,98.39409722222221,0)" xlink:href="#ag"/></g><path d="M789 20c-398 0-667-293-667-764 0-473 273-766 655-766 315 0 558 198 612 487h-196c-61-191-204-311-415-311-262 0-471 207-471 590 0 380 208 588 482 588 249 0 420-165 425-427H828v-166h572v163c0 370-256 606-611 606" id="au"/><path d="M338-670V0H158v-1118h173l1 207c72-158 192-221 342-221 226 0 378 139 378 422V0H872v-695c0-172-96-275-252-275-161 0-282 109-282 300" id="av"/><g id="i"><use transform="matrix(0.010850694444444444,0,0,0.010850694444444444,0,0)" xlink:href="#au"/><use transform="matrix(0.010850694444444444,0,0,0.010850694444444444,16.57986111111111,0)" xlink:href="#Z"/><use transform="matrix(0.010850694444444444,0,0,0.010850694444444444,29.535590277777775,0)" xlink:href="#av"/><use transform="matrix(0.010850694444444444,0,0,0.010850694444444444,42.66493055555556,0)" xlink:href="#ar"/><use transform="matrix(0.010850694444444444,0,0,0.010850694444444444,56.271701388888886,0)" xlink:href="#Z"/><use transform="matrix(0.010850694444444444,0,0,0.010850694444444444,69.22743055555556,0)" xlink:href="#aa"/></g><path d="M537 14c-226 0-379-139-379-422v-710h180v695c0 172 97 275 253 275 160 0 281-109 281-300v-670h181V0H879v-209C806-46 684 14 537 14" id="aw"/><path d="M140 405l46-156c120 36 205 19 263-150l32-93L54-1118h197c107 313 237 620 324 950 87-331 219-637 326-950h196L606 167c-68 178-176 259-334 259-64 0-113-12-132-21" id="ax"/><g id="j"><use transform="matrix(0.010850694444444444,0,0,0.010850694444444444,0,0)" xlink:href="#as"/><use transform="matrix(0.010850694444444444,0,0,0.010850694444444444,16.23263888888889,0)" xlink:href="#al"/><use transform="matrix(0.010850694444444444,0,0,0.010850694444444444,29.557291666666664,0)" xlink:href="#aw"/><use transform="matrix(0.010850694444444444,0,0,0.010850694444444444,42.697482638888886,0)" xlink:href="#av"/><use transform="matrix(0.010850694444444444,0,0,0.010850694444444444,55.826822916666664,0)" xlink:href="#ag"/><use transform="matrix(0.010850694444444444,0,0,0.010850694444444444,63.09678819444444,0)" xlink:href="#aa"/><use transform="matrix(0.010850694444444444,0,0,0.010850694444444444,71.80989583333333,0)" xlink:href="#ax"/></g><path d="M338-670V0H158v-1490h180v566c73-149 190-208 336-208 226 0 379 139 379 422V0H872v-695c0-172-96-275-252-275-161 0-282 109-282 300" id="ay"/><g id="k"><use transform="matrix(0.010850694444444444,0,0,0.010850694444444444,0,0)" xlink:href="#as"/><use transform="matrix(0.010850694444444444,0,0,0.010850694444444444,16.23263888888889,0)" xlink:href="#ay"/><use transform="matrix(0.010850694444444444,0,0,0.010850694444444444,29.37282986111111,0)" xlink:href="#ai"/><use transform="matrix(0.010850694444444444,0,0,0.010850694444444444,41.85112847222222,0)" xlink:href="#av"/><use transform="matrix(0.010850694444444444,0,0,0.010850694444444444,54.98046875,0)" xlink:href="#av"/><use transform="matrix(0.010850694444444444,0,0,0.010850694444444444,68.10980902777777,0)" xlink:href="#Z"/><use transform="matrix(0.010850694444444444,0,0,0.010850694444444444,81.06553819444444,0)" xlink:href="#ao"/><use transform="matrix(0.010850694444444444,0,0,0.010850694444444444,86.44748263888889,0)" xlink:href="#Y"/></g><g id="l"><use transform="matrix(0.010850694444444444,0,0,0.010850694444444444,0,0)" xlink:href="#ah"/><use transform="matrix(0.010850694444444444,0,0,0.010850694444444444,16.74262152777778,0)" xlink:href="#ai"/><use transform="matrix(0.010850694444444444,0,0,0.010850694444444444,29.22092013888889,0)" xlink:href="#aj"/><use transform="matrix(0.010850694444444444,0,0,0.010850694444444444,48.68706597222222,0)" xlink:href="#Z"/></g><path d="M613 24c-304 0-509-231-509-576 0-350 205-580 509-580 216 0 392 114 453 309l-173 49c-33-115-133-197-280-197-223 0-326 196-326 419 0 220 103 415 326 415 150 0 252-85 285-206l172 49C1010-95 832 24 613 24" id="az"/><path d="M158 418v-1536h174v179h20c37-59 106-193 324-193 279 0 474 222 474 576 0 356-194 580-473 580-213 0-288-135-325-197h-14v591H158zm492-555c209 0 317-186 317-421 0-232-105-413-317-413-206 0-314 166-314 413 0 249 111 421 314 421" id="aA"/><g id="m"><use transform="matrix(0.010850694444444444,0,0,0.010850694444444444,0,0)" xlink:href="#ad"/><use transform="matrix(0.010850694444444444,0,0,0.010850694444444444,16.03732638888889,0)" xlink:href="#Z"/><use transform="matrix(0.010850694444444444,0,0,0.010850694444444444,28.99305555555556,0)" xlink:href="#Y"/><use transform="matrix(0.010850694444444444,0,0,0.010850694444444444,40.72265625,0)" xlink:href="#az"/><use transform="matrix(0.010850694444444444,0,0,0.010850694444444444,53.41796875,0)" xlink:href="#aa"/><use transform="matrix(0.010850694444444444,0,0,0.010850694444444444,62.131076388888886,0)" xlink:href="#af"/><use transform="matrix(0.010850694444444444,0,0,0.010850694444444444,67.51302083333333,0)" xlink:href="#aA"/><use transform="matrix(0.010850694444444444,0,0,0.010850694444444444,81.11979166666666,0)" xlink:href="#ag"/><use transform="matrix(0.010850694444444444,0,0,0.010850694444444444,88.38975694444443,0)" xlink:href="#af"/><use transform="matrix(0.010850694444444444,0,0,0.010850694444444444,93.77170138888887,0)" xlink:href="#al"/><use transform="matrix(0.010850694444444444,0,0,0.010850694444444444,107.09635416666664,0)" xlink:href="#av"/></g><path fill="#333" d="M628 22C291 22 81-210 81-554c0-346 210-578 547-578 336 0 547 232 547 578 0 344-211 576-547 576zm0-236c160 0 242-146 242-341 0-197-82-341-242-341S387-753 387-555c0 195 81 341 241 341" id="aB"/><path fill="#333" d="M361 0L31-1118h315c68 295 127 523 188 845 63-317 128-551 199-845h276c71 296 131 525 196 846 57-321 119-552 186-846h319L1378 0h-305c-73-261-148-486-204-771C813-484 740-261 666 0H361" id="aC"/><path fill="#333" d="M428-647V0H128v-1118h283l4 231c63-156 176-245 348-245 232 0 384 159 384 421V0H847v-659c0-139-76-222-202-222-128 0-217 86-217 234" id="aD"/><g id="n"><use transform="matrix(0.008680555555555556,0,0,0.008680555555555556,0,0)" xlink:href="#aB"/><use transform="matrix(0.008680555555555556,0,0,0.008680555555555556,10.659722222222223,0)" xlink:href="#aC"/><use transform="matrix(0.008680555555555556,0,0,0.008680555555555556,25.772569444444446,0)" xlink:href="#aD"/></g><path fill="#333" d="M572 22C302 22 117-98 78-306l279-48c29 105 101 156 224 156 114 0 185-48 185-115 0-118-228-130-337-155-215-49-322-150-322-317 0-215 187-347 470-347 265 0 424 116 466 298l-266 47c-24-76-87-130-196-130-98 0-174 46-174 113 0 56 38 95 144 117l201 40c216 44 320 143 320 302 0 220-207 367-500 367" id="aE"/><path fill="#333" d="M513 14c-232 0-385-159-385-421v-711h300v659c0 139 76 222 202 222 127 0 217-86 217-234v-647h301V0H864l-4-232C797-74 683 14 513 14" id="aF"/><path fill="#333" d="M754 19C571 19 479-89 437-179h-14V0H128v-1490h300v560h9c41-89 129-202 319-202 248 0 453 193 453 575 0 372-197 576-455 576zm-92-241c156 0 240-139 240-336 0-196-83-334-240-334-154 0-241 131-241 334 0 202 88 336 241 336" id="aG"/><path fill="#333" d="M628 22C291 22 81-210 81-554c0-346 210-578 547-578 265 0 455 142 497 372l-279 52c-25-116-99-188-215-188-160 0-244 139-244 341 0 200 84 341 244 341 116 0 193-74 217-195l279 51C1085-123 896 22 628 22" id="aH"/><path fill="#333" d="M128 0v-1118h300V0H128zm150-1264c-91 0-165-68-165-154 0-85 74-154 165-154 90 0 165 69 165 154 0 86-75 154-165 154" id="aI"/><path fill="#333" d="M633 22C291 22 81-200 81-553c0-345 210-579 537-579 292 0 525 185 525 567v84H378c7 183 109 277 260 277 105 0 184-46 216-132l272 51C1071-99 893 22 633 22zM380-669h474c-15-146-94-237-233-237-143 0-229 99-241 237" id="aJ"/><g id="o"><use transform="matrix(0.008680555555555556,0,0,0.008680555555555556,0,0)" xlink:href="#aE"/><use transform="matrix(0.008680555555555556,0,0,0.008680555555555556,9.956597222222223,0)" xlink:href="#aF"/><use transform="matrix(0.008680555555555556,0,0,0.008680555555555556,21.024305555555557,0)" xlink:href="#aG"/><use transform="matrix(0.008680555555555556,0,0,0.008680555555555556,32.23090277777778,0)" xlink:href="#aE"/><use transform="matrix(0.008680555555555556,0,0,0.008680555555555556,42.1875,0)" xlink:href="#aH"/><use transform="matrix(0.008680555555555556,0,0,0.008680555555555556,52.64756944444445,0)" xlink:href="#aI"/><use transform="matrix(0.008680555555555556,0,0,0.008680555555555556,57.46527777777778,0)" xlink:href="#aG"/><use transform="matrix(0.008680555555555556,0,0,0.008680555555555556,68.671875,0)" xlink:href="#aJ"/></g><path fill="#333" d="M683-1118v229H474v562c0 71 29 104 102 104 23 0 73-7 95-13l43 225C647 9 580 16 520 16 296 16 174-96 174-301v-588H20v-229h154v-266h300v266h209" id="aK"/><g id="p"><use transform="matrix(0.008680555555555556,0,0,0.008680555555555556,0,0)" xlink:href="#aK"/><use transform="matrix(0.008680555555555556,0,0,0.008680555555555556,6.336805555555556,0)" xlink:href="#aB"/></g><path fill="#333" d="M750-1118v229H516V0H217v-889H20v-229h197v-86c0-238 156-356 363-356 94 0 178 20 215 31l-54 226c-25-7-61-15-100-15-123-3-131 84-125 200h234" id="aL"/><path fill="#333" d="M440 22C227 22 68-92 68-313c0-250 202-322 422-343 195-21 271-24 271-105 0-95-63-149-175-149-116 0-187 57-211 129l-275-46c57-194 237-305 487-305 240 0 474 108 474 379V0H777v-155h-10C713-51 605 22 440 22zm85-211c140 0 238-93 238-211v-121c-37 26-156 42-222 51-111 16-185 59-185 149 0 87 70 132 169 132" id="aM"/><path fill="#333" d="M128 0v-1118h290v195h12c54-169 184-238 367-200v268c-27-8-86-15-130-15-138 0-239 95-239 234V0H128" id="aN"/><g id="q"><use transform="matrix(0.008680555555555556,0,0,0.008680555555555556,0,0)" xlink:href="#aL"/><use transform="matrix(0.008680555555555556,0,0,0.008680555555555556,6.692708333333333,0)" xlink:href="#aJ"/><use transform="matrix(0.008680555555555556,0,0,0.008680555555555556,17.45659722222222,0)" xlink:href="#aM"/><use transform="matrix(0.008680555555555556,0,0,0.008680555555555556,27.77777777777778,0)" xlink:href="#aK"/><use transform="matrix(0.008680555555555556,0,0,0.008680555555555556,34.28819444444444,0)" xlink:href="#aF"/><use transform="matrix(0.008680555555555556,0,0,0.008680555555555556,45.35590277777778,0)" xlink:href="#aN"/><use transform="matrix(0.008680555555555556,0,0,0.008680555555555556,52.161458333333336,0)" xlink:href="#aJ"/></g><path d="M600 0L52-1490h200c166 485 304 806 458 1336 156-533 285-846 449-1336h202L819 0H600" id="aO"/><g id="r"><use transform="matrix(0.010850694444444444,0,0,0.010850694444444444,0,0)" xlink:href="#aO"/><use transform="matrix(0.010850694444444444,0,0,0.010850694444444444,15.33203125,0)" xlink:href="#af"/><use transform="matrix(0.010850694444444444,0,0,0.010850694444444444,20.713975694444443,0)" xlink:href="#ar"/><use transform="matrix(0.010850694444444444,0,0,0.010850694444444444,34.32074652777777,0)" xlink:href="#Z"/><use transform="matrix(0.010850694444444444,0,0,0.010850694444444444,47.276475694444436,0)" xlink:href="#al"/><use transform="matrix(0.010850694444444444,0,0,0.010850694444444444,60.60112847222221,0)" xlink:href="#Y"/></g><path d="M98-1322v-168h1126v168H757V0H567v-1322H98" id="aP"/><g id="s"><use transform="matrix(0.010850694444444444,0,0,0.010850694444444444,0,0)" xlink:href="#aP"/><use transform="matrix(0.010850694444444444,0,0,0.010850694444444444,14.344618055555555,0)" xlink:href="#af"/><use transform="matrix(0.010850694444444444,0,0,0.010850694444444444,19.7265625,0)" xlink:href="#ag"/><use transform="matrix(0.010850694444444444,0,0,0.010850694444444444,26.99652777777778,0)" xlink:href="#ao"/><use transform="matrix(0.010850694444444444,0,0,0.010850694444444444,32.37847222222222,0)" xlink:href="#Z"/></g><g id="t"><use transform="matrix(0.010850694444444444,0,0,0.010850694444444444,0,0)" xlink:href="#ad"/><use transform="matrix(0.010850694444444444,0,0,0.010850694444444444,16.03732638888889,0)" xlink:href="#aw"/><use transform="matrix(0.010850694444444444,0,0,0.010850694444444444,29.17751736111111,0)" xlink:href="#aa"/><use transform="matrix(0.010850694444444444,0,0,0.010850694444444444,37.54340277777778,0)" xlink:href="#ai"/><use transform="matrix(0.010850694444444444,0,0,0.010850694444444444,50.021701388888886,0)" xlink:href="#ag"/><use transform="matrix(0.010850694444444444,0,0,0.010850694444444444,57.291666666666664,0)" xlink:href="#af"/><use transform="matrix(0.010850694444444444,0,0,0.010850694444444444,62.67361111111111,0)" xlink:href="#al"/><use transform="matrix(0.010850694444444444,0,0,0.010850694444444444,75.99826388888889,0)" xlink:href="#av"/></g><g id="u"><use transform="matrix(0.010850694444444444,0,0,0.010850694444444444,0,0)" xlink:href="#aO"/><use transform="matrix(0.010850694444444444,0,0,0.010850694444444444,15.33203125,0)" xlink:href="#af"/><use transform="matrix(0.010850694444444444,0,0,0.010850694444444444,20.713975694444443,0)" xlink:href="#Z"/><use transform="matrix(0.010850694444444444,0,0,0.010850694444444444,33.268229166666664,0)" xlink:href="#aq"/><use transform="matrix(0.010850694444444444,0,0,0.010850694444444444,51.45399305555556,0)" xlink:href="#Y"/></g><path d="M611 442c-248 0-391-105-460-228l146-94c47 65 117 165 314 165 178 0 307-82 307-266v-224h-17C863-141 792-18 576-18c-268 0-472-195-472-546 0-346 197-568 476-568 216 0 288 133 326 193h17v-179h175V29c0 289-215 413-487 413zm-5-620c203 0 314-146 314-390 0-237-108-403-314-403-213 0-319 180-319 403 0 230 109 390 319 390" id="aQ"/><g id="v"><use transform="matrix(0.010850694444444444,0,0,0.010850694444444444,0,0)" xlink:href="#as"/><use transform="matrix(0.010850694444444444,0,0,0.010850694444444444,16.23263888888889,0)" xlink:href="#ai"/><use transform="matrix(0.010850694444444444,0,0,0.010850694444444444,28.7109375,0)" xlink:href="#ag"/><use transform="matrix(0.010850694444444444,0,0,0.010850694444444444,35.763888888888886,0)" xlink:href="#Z"/><use transform="matrix(0.010850694444444444,0,0,0.010850694444444444,48.71961805555556,0)" xlink:href="#aQ"/><use transform="matrix(0.010850694444444444,0,0,0.010850694444444444,62.34809027777778,0)" xlink:href="#al"/><use transform="matrix(0.010850694444444444,0,0,0.010850694444444444,75.67274305555554,0)" xlink:href="#aa"/><use transform="matrix(0.010850694444444444,0,0,0.010850694444444444,84.38585069444444,0)" xlink:href="#ax"/></g><g id="w"><use transform="matrix(0.008680555555555556,0,0,0.008680555555555556,0,0)" xlink:href="#aN"/><use transform="matrix(0.008680555555555556,0,0,0.008680555555555556,6.805555555555556,0)" xlink:href="#aJ"/><use transform="matrix(0.008680555555555556,0,0,0.008680555555555556,17.395833333333336,0)" xlink:href="#aL"/><use transform="matrix(0.008680555555555556,0,0,0.008680555555555556,24.08854166666667,0)" xlink:href="#aJ"/><use transform="matrix(0.008680555555555556,0,0,0.008680555555555556,34.67881944444445,0)" xlink:href="#aN"/><use transform="matrix(0.008680555555555556,0,0,0.008680555555555556,41.918402777777786,0)" xlink:href="#aE"/></g><path fill="#333" d="M428-1490V0H128v-1490h300" id="aR"/><path fill="#333" d="M128 0v-1490h300v802h17l366-430h347L740-633 1179 0H826L514-456l-86 97V0H128" id="aS"/><g id="x"><use transform="matrix(0.008680555555555556,0,0,0.008680555555555556,0,0)" xlink:href="#aR"/><use transform="matrix(0.008680555555555556,0,0,0.008680555555555556,4.817708333333334,0)" xlink:href="#aI"/><use transform="matrix(0.008680555555555556,0,0,0.008680555555555556,9.635416666666668,0)" xlink:href="#aS"/><use transform="matrix(0.008680555555555556,0,0,0.008680555555555556,19.548611111111114,0)" xlink:href="#aJ"/></g><path fill="#333" d="M128 418v-1536h295v188h14c41-89 129-202 319-202 248 0 453 193 453 575 0 372-197 576-455 576-183 0-275-108-317-198h-9v597H128zm534-640c156 0 240-139 240-336 0-196-83-334-240-334-154 0-241 131-241 334 0 202 88 336 241 336" id="aT"/><path fill="#333" d="M537 19C279 19 81-185 81-557c0-382 206-575 454-575 190 0 278 113 318 202h10v-560h300V0H868v-179h-15C812-89 719 19 537 19zm92-241c153 0 240-134 240-336 0-203-86-334-240-334-158 0-240 138-240 334 0 197 84 336 240 336" id="aU"/><g id="y"><use transform="matrix(0.008680555555555556,0,0,0.008680555555555556,0,0)" xlink:href="#aF"/><use transform="matrix(0.008680555555555556,0,0,0.008680555555555556,11.067708333333334,0)" xlink:href="#aT"/><use transform="matrix(0.008680555555555556,0,0,0.008680555555555556,22.274305555555557,0)" xlink:href="#aR"/><use transform="matrix(0.008680555555555556,0,0,0.008680555555555556,27.092013888888893,0)" xlink:href="#aB"/><use transform="matrix(0.008680555555555556,0,0,0.008680555555555556,38.168402777777786,0)" xlink:href="#aM"/><use transform="matrix(0.008680555555555556,0,0,0.008680555555555556,48.48958333333334,0)" xlink:href="#aU"/></g><g id="z"><use transform="matrix(0.010850694444444444,0,0,0.010850694444444444,0,0)" xlink:href="#ap"/><use transform="matrix(0.010850694444444444,0,0,0.010850694444444444,14.192708333333332,0)" xlink:href="#ao"/><use transform="matrix(0.010850694444444444,0,0,0.010850694444444444,19.57465277777778,0)" xlink:href="#ai"/><use transform="matrix(0.010850694444444444,0,0,0.010850694444444444,31.72743055555556,0)" xlink:href="#ax"/><use transform="matrix(0.010850694444444444,0,0,0.010850694444444444,44.32508680555556,0)" xlink:href="#ao"/><use transform="matrix(0.010850694444444444,0,0,0.010850694444444444,49.70703125,0)" xlink:href="#af"/><use transform="matrix(0.010850694444444444,0,0,0.010850694444444444,55.08897569444444,0)" xlink:href="#Y"/><use transform="matrix(0.010850694444444444,0,0,0.010850694444444444,66.81857638888889,0)" xlink:href="#ag"/><use transform="matrix(0.010850694444444444,0,0,0.010850694444444444,73.87152777777777,0)" xlink:href="#Y"/></g><g id="A"><use transform="matrix(0.008680555555555556,0,0,0.008680555555555556,0,0)" xlink:href="#aH"/><use transform="matrix(0.008680555555555556,0,0,0.008680555555555556,10.460069444444445,0)" xlink:href="#aN"/><use transform="matrix(0.008680555555555556,0,0,0.008680555555555556,17.265625,0)" xlink:href="#aJ"/><use transform="matrix(0.008680555555555556,0,0,0.008680555555555556,28.02951388888889,0)" xlink:href="#aM"/><use transform="matrix(0.008680555555555556,0,0,0.008680555555555556,38.35069444444444,0)" xlink:href="#aK"/><use transform="matrix(0.008680555555555556,0,0,0.008680555555555556,44.68749999999999,0)" xlink:href="#aJ"/></g><g id="B"><use transform="matrix(0.008680555555555556,0,0,0.008680555555555556,0,0)" xlink:href="#aT"/><use transform="matrix(0.008680555555555556,0,0,0.008680555555555556,11.206597222222223,0)" xlink:href="#aR"/><use transform="matrix(0.008680555555555556,0,0,0.008680555555555556,16.024305555555557,0)" xlink:href="#aM"/><use transform="matrix(0.008680555555555556,0,0,0.008680555555555556,26.345486111111118,0)" xlink:href="#aH"/><use transform="matrix(0.008680555555555556,0,0,0.008680555555555556,36.80555555555556,0)" xlink:href="#aJ"/><use transform="matrix(0.008680555555555556,0,0,0.008680555555555556,47.395833333333336,0)" xlink:href="#aU"/></g><g id="C"><use transform="matrix(0.008680555555555556,0,0,0.008680555555555556,0,0)" xlink:href="#aI"/><use transform="matrix(0.008680555555555556,0,0,0.008680555555555556,4.817708333333334,0)" xlink:href="#aD"/></g><g id="D"><use transform="matrix(0.010850694444444444,0,0,0.010850694444444444,0,0)" xlink:href="#as"/><use transform="matrix(0.010850694444444444,0,0,0.010850694444444444,16.23263888888889,0)" xlink:href="#al"/><use transform="matrix(0.010850694444444444,0,0,0.010850694444444444,29.557291666666664,0)" xlink:href="#aj"/><use transform="matrix(0.010850694444444444,0,0,0.010850694444444444,49.0234375,0)" xlink:href="#aj"/><use transform="matrix(0.010850694444444444,0,0,0.010850694444444444,68.48958333333333,0)" xlink:href="#Z"/><use transform="matrix(0.010850694444444444,0,0,0.010850694444444444,81.4453125,0)" xlink:href="#av"/><use transform="matrix(0.010850694444444444,0,0,0.010850694444444444,94.57465277777777,0)" xlink:href="#ag"/><use transform="matrix(0.010850694444444444,0,0,0.010850694444444444,101.62760416666666,0)" xlink:href="#Y"/></g><g id="E"><use transform="matrix(0.010850694444444444,0,0,0.010850694444444444,0,0)" xlink:href="#ab"/><use transform="matrix(0.010850694444444444,0,0,0.010850694444444444,10.883246527777779,0)" xlink:href="#as"/><use transform="matrix(0.010850694444444444,0,0,0.010850694444444444,27.115885416666664,0)" xlink:href="#ay"/><use transform="matrix(0.010850694444444444,0,0,0.010850694444444444,40.256076388888886,0)" xlink:href="#ai"/><use transform="matrix(0.010850694444444444,0,0,0.010850694444444444,52.734375,0)" xlink:href="#av"/><use transform="matrix(0.010850694444444444,0,0,0.010850694444444444,65.86371527777777,0)" xlink:href="#av"/><use transform="matrix(0.010850694444444444,0,0,0.010850694444444444,78.99305555555554,0)" xlink:href="#Z"/><use transform="matrix(0.010850694444444444,0,0,0.010850694444444444,91.94878472222221,0)" xlink:href="#ao"/><use transform="matrix(0.010850694444444444,0,0,0.010850694444444444,97.33072916666666,0)" xlink:href="#ac"/><use transform="matrix(0.010850694444444444,0,0,0.010850694444444444,103.29861111111111,0)" xlink:href="#ad"/></g><g id="F"><use transform="matrix(0.010850694444444444,0,0,0.010850694444444444,0,0)" xlink:href="#ab"/><use transform="matrix(0.010850694444444444,0,0,0.010850694444444444,10.883246527777779,0)" xlink:href="#as"/><use transform="matrix(0.010850694444444444,0,0,0.010850694444444444,27.115885416666664,0)" xlink:href="#aa"/><use transform="matrix(0.010850694444444444,0,0,0.010850694444444444,35.11284722222222,0)" xlink:href="#Z"/><use transform="matrix(0.010850694444444444,0,0,0.010850694444444444,48.28559027777778,0)" xlink:href="#ai"/><use transform="matrix(0.010850694444444444,0,0,0.010850694444444444,60.763888888888886,0)" xlink:href="#ag"/><use transform="matrix(0.010850694444444444,0,0,0.010850694444444444,67.81684027777777,0)" xlink:href="#Z"/><use transform="matrix(0.010850694444444444,0,0,0.010850694444444444,80.77256944444444,0)" xlink:href="#ar"/><use transform="matrix(0.010850694444444444,0,0,0.010850694444444444,94.37934027777777,0)" xlink:href="#at"/><use transform="matrix(0.010850694444444444,0,0,0.010850694444444444,109.27734375,0)" xlink:href="#ag"/></g><path d="M65 0l393-574-370-544h210c88 136 192 297 267 435 67-142 176-302 264-435h206L661-564 1053 0H844c-94-144-206-310-287-458C484-308 366-142 273 0H65" id="aV"/><g id="G"><use transform="matrix(0.010850694444444444,0,0,0.010850694444444444,0,0)" xlink:href="#aP"/><use transform="matrix(0.010850694444444444,0,0,0.010850694444444444,12.608506944444445,0)" xlink:href="#Z"/><use transform="matrix(0.010850694444444444,0,0,0.010850694444444444,25.065104166666664,0)" xlink:href="#aV"/><use transform="matrix(0.010850694444444444,0,0,0.010850694444444444,37.63020833333333,0)" xlink:href="#ag"/></g><g id="H"><use transform="matrix(0.008680555555555556,0,0,0.008680555555555556,0,0)" xlink:href="#aC"/><use transform="matrix(0.008680555555555556,0,0,0.008680555555555556,15.112847222222223,0)" xlink:href="#aN"/><use transform="matrix(0.008680555555555556,0,0,0.008680555555555556,22.482638888888893,0)" xlink:href="#aI"/><use transform="matrix(0.008680555555555556,0,0,0.008680555555555556,27.30034722222223,0)" xlink:href="#aK"/><use transform="matrix(0.008680555555555556,0,0,0.008680555555555556,33.637152777777786,0)" xlink:href="#aJ"/></g><path fill="#333" d="M625 442c-280 0-454-114-503-274l258-72c28 63 97 128 243 128 153 0 246-69 246-216v-206h-23C805-108 717-16 536-16 284-16 81-191 81-561c0-378 208-571 456-571 188 0 280 113 321 202h13v-188h295V-9c0 303-226 451-541 451zm5-686c153 0 240-119 240-319 0-198-86-329-240-329-158 0-241 137-241 329 0 195 85 319 241 319" id="aW"/><g id="I"><use transform="matrix(0.008680555555555556,0,0,0.008680555555555556,0,0)" xlink:href="#aK"/><use transform="matrix(0.008680555555555556,0,0,0.008680555555555556,6.597222222222222,0)" xlink:href="#aM"/><use transform="matrix(0.008680555555555556,0,0,0.008680555555555556,16.91840277777778,0)" xlink:href="#aN"/><use transform="matrix(0.008680555555555556,0,0,0.008680555555555556,23.723958333333336,0)" xlink:href="#aW"/><use transform="matrix(0.008680555555555556,0,0,0.008680555555555556,34.95659722222223,0)" xlink:href="#aJ"/><use transform="matrix(0.008680555555555556,0,0,0.008680555555555556,45.54687500000001,0)" xlink:href="#aK"/><use transform="matrix(0.008680555555555556,0,0,0.008680555555555556,51.927083333333336,0)" xlink:href="#aE"/></g><path fill="#333" d="M120 396l69-226c123 42 245 23 254-107l8-60L31-1118h319c87 288 199 559 259 872 72-308 185-583 277-872h315L726 132c-68 181-186 294-410 294-79 0-153-13-196-30" id="aX"/><g id="J"><use transform="matrix(0.008680555555555556,0,0,0.008680555555555556,0,0)" xlink:href="#aN"/><use transform="matrix(0.008680555555555556,0,0,0.008680555555555556,6.805555555555556,0)" xlink:href="#aJ"/><use transform="matrix(0.008680555555555556,0,0,0.008680555555555556,17.395833333333336,0)" xlink:href="#aT"/><use transform="matrix(0.008680555555555556,0,0,0.008680555555555556,28.602430555555557,0)" xlink:href="#aR"/><use transform="matrix(0.008680555555555556,0,0,0.008680555555555556,33.60243055555556,0)" xlink:href="#aX"/></g><g id="K"><use transform="matrix(0.008680555555555556,0,0,0.008680555555555556,0,0)" xlink:href="#aE"/><use transform="matrix(0.008680555555555556,0,0,0.008680555555555556,9.956597222222223,0)" xlink:href="#aF"/><use transform="matrix(0.008680555555555556,0,0,0.008680555555555556,21.024305555555557,0)" xlink:href="#aG"/><use transform="matrix(0.008680555555555556,0,0,0.008680555555555556,32.23090277777778,0)" xlink:href="#aE"/><use transform="matrix(0.008680555555555556,0,0,0.008680555555555556,42.1875,0)" xlink:href="#aH"/><use transform="matrix(0.008680555555555556,0,0,0.008680555555555556,52.64756944444445,0)" xlink:href="#aN"/><use transform="matrix(0.008680555555555556,0,0,0.008680555555555556,60.017361111111114,0)" xlink:href="#aI"/><use transform="matrix(0.008680555555555556,0,0,0.008680555555555556,64.83506944444444,0)" xlink:href="#aG"/><use transform="matrix(0.008680555555555556,0,0,0.008680555555555556,76.04166666666667,0)" xlink:href="#aJ"/></g><path d="M458 0L52-1490h194c108 439 233 855 324 1313 92-459 221-873 331-1313h216c110 438 234 854 330 1307 92-455 216-869 323-1307h196L1558 0h-221l-256-944c-26-95-50-200-73-331-22 122-44 223-73 331L680 0H458" id="aY"/><path d="M180 0v-1490h190v644h782v-644h190V0h-190v-678H370V0H180" id="aZ"/><g id="L"><use transform="matrix(0.010850694444444444,0,0,0.010850694444444444,0,0)" xlink:href="#aY"/><use transform="matrix(0.010850694444444444,0,0,0.010850694444444444,20.768229166666668,0)" xlink:href="#ai"/><use transform="matrix(0.010850694444444444,0,0,0.010850694444444444,33.24652777777778,0)" xlink:href="#ag"/><use transform="matrix(0.010850694444444444,0,0,0.010850694444444444,40.29947916666667,0)" xlink:href="#az"/><use transform="matrix(0.010850694444444444,0,0,0.010850694444444444,52.99479166666667,0)" xlink:href="#ay"/><use transform="matrix(0.010850694444444444,0,0,0.010850694444444444,66.13498263888889,0)" xlink:href="#aZ"/><use transform="matrix(0.010850694444444444,0,0,0.010850694444444444,82.64973958333333,0)" xlink:href="#af"/><use transform="matrix(0.010850694444444444,0,0,0.010850694444444444,88.03168402777777,0)" xlink:href="#Y"/><use transform="matrix(0.010850694444444444,0,0,0.010850694444444444,99.76128472222221,0)" xlink:href="#ag"/></g><g id="M"><use transform="matrix(0.010850694444444444,0,0,0.010850694444444444,0,0)" xlink:href="#ab"/><use transform="matrix(0.010850694444444444,0,0,0.010850694444444444,11.1328125,0)" xlink:href="#X"/><use transform="matrix(0.010850694444444444,0,0,0.010850694444444444,27.669270833333332,0)" xlink:href="#Y"/><use transform="matrix(0.010850694444444444,0,0,0.010850694444444444,39.39887152777778,0)" xlink:href="#Z"/><use transform="matrix(0.010850694444444444,0,0,0.010850694444444444,52.35460069444444,0)" xlink:href="#aa"/><use transform="matrix(0.010850694444444444,0,0,0.010850694444444444,61.06770833333333,0)" xlink:href="#ac"/><use transform="matrix(0.010850694444444444,0,0,0.010850694444444444,67.03559027777777,0)" xlink:href="#ad"/></g><g id="N"><use transform="matrix(0.010850694444444444,0,0,0.010850694444444444,0,0)" xlink:href="#ab"/><use transform="matrix(0.010850694444444444,0,0,0.010850694444444444,11.1328125,0)" xlink:href="#aO"/><use transform="matrix(0.010850694444444444,0,0,0.010850694444444444,26.46484375,0)" xlink:href="#af"/><use transform="matrix(0.010850694444444444,0,0,0.010850694444444444,31.846788194444443,0)" xlink:href="#ar"/><use transform="matrix(0.010850694444444444,0,0,0.010850694444444444,45.45355902777778,0)" xlink:href="#Z"/><use transform="matrix(0.010850694444444444,0,0,0.010850694444444444,58.409288194444436,0)" xlink:href="#al"/><use transform="matrix(0.010850694444444444,0,0,0.010850694444444444,71.73394097222221,0)" xlink:href="#ac"/><use transform="matrix(0.010850694444444444,0,0,0.010850694444444444,77.70182291666666,0)" xlink:href="#ad"/></g><g id="O"><use transform="matrix(0.010850694444444444,0,0,0.010850694444444444,0,0)" xlink:href="#aY"/><use transform="matrix(0.010850694444444444,0,0,0.010850694444444444,20.768229166666668,0)" xlink:href="#ai"/><use transform="matrix(0.010850694444444444,0,0,0.010850694444444444,33.24652777777778,0)" xlink:href="#ag"/><use transform="matrix(0.010850694444444444,0,0,0.010850694444444444,40.29947916666667,0)" xlink:href="#az"/><use transform="matrix(0.010850694444444444,0,0,0.010850694444444444,52.99479166666667,0)" xlink:href="#ay"/><use transform="matrix(0.010850694444444444,0,0,0.010850694444444444,66.13498263888889,0)" xlink:href="#Z"/><use transform="matrix(0.010850694444444444,0,0,0.010850694444444444,79.09071180555556,0)" xlink:href="#ar"/><use transform="matrix(0.010850694444444444,0,0,0.010850694444444444,92.69748263888889,0)" xlink:href="#at"/><use transform="matrix(0.010850694444444444,0,0,0.010850694444444444,107.59548611111111,0)" xlink:href="#ag"/></g><g id="P"><use transform="matrix(0.010850694444444444,0,0,0.010850694444444444,0,0)" xlink:href="#aY"/><use transform="matrix(0.010850694444444444,0,0,0.010850694444444444,20.768229166666668,0)" xlink:href="#ai"/><use transform="matrix(0.010850694444444444,0,0,0.010850694444444444,33.24652777777778,0)" xlink:href="#ag"/><use transform="matrix(0.010850694444444444,0,0,0.010850694444444444,40.29947916666667,0)" xlink:href="#az"/><use transform="matrix(0.010850694444444444,0,0,0.010850694444444444,52.99479166666667,0)" xlink:href="#ay"/><use transform="matrix(0.010850694444444444,0,0,0.010850694444444444,66.13498263888889,0)" xlink:href="#Z"/><use transform="matrix(0.010850694444444444,0,0,0.010850694444444444,79.09071180555556,0)" xlink:href="#ar"/><use transform="matrix(0.010850694444444444,0,0,0.010850694444444444,92.69748263888889,0)" xlink:href="#X"/><use transform="matrix(0.010850694444444444,0,0,0.010850694444444444,109.23394097222221,0)" xlink:href="#av"/><use transform="matrix(0.010850694444444444,0,0,0.010850694444444444,122.36328125,0)" xlink:href="#ag"/><use transform="matrix(0.010850694444444444,0,0,0.010850694444444444,129.63324652777777,0)" xlink:href="#af"/><use transform="matrix(0.010850694444444444,0,0,0.010850694444444444,135.01519097222223,0)" xlink:href="#ao"/></g><g id="Q"><use transform="matrix(0.008680555555555556,0,0,0.008680555555555556,0,0)" xlink:href="#aN"/><use transform="matrix(0.008680555555555556,0,0,0.008680555555555556,6.805555555555556,0)" xlink:href="#aJ"/><use transform="matrix(0.008680555555555556,0,0,0.008680555555555556,17.395833333333336,0)" xlink:href="#aH"/><use transform="matrix(0.008680555555555556,0,0,0.008680555555555556,27.85590277777778,0)" xlink:href="#aB"/><use transform="matrix(0.008680555555555556,0,0,0.008680555555555556,38.75868055555556,0)" xlink:href="#aN"/><use transform="matrix(0.008680555555555556,0,0,0.008680555555555556,45.564236111111114,0)" xlink:href="#aU"/></g><g id="R"><use transform="matrix(0.010850694444444444,0,0,0.010850694444444444,0,0)" xlink:href="#ap"/><use transform="matrix(0.010850694444444444,0,0,0.010850694444444444,14.192708333333332,0)" xlink:href="#ao"/><use transform="matrix(0.010850694444444444,0,0,0.010850694444444444,19.57465277777778,0)" xlink:href="#ai"/><use transform="matrix(0.010850694444444444,0,0,0.010850694444444444,31.72743055555556,0)" xlink:href="#ax"/><use transform="matrix(0.010850694444444444,0,0,0.010850694444444444,44.32508680555556,0)" xlink:href="#ao"/><use transform="matrix(0.010850694444444444,0,0,0.010850694444444444,49.70703125,0)" xlink:href="#af"/><use transform="matrix(0.010850694444444444,0,0,0.010850694444444444,55.08897569444444,0)" xlink:href="#Y"/><use transform="matrix(0.010850694444444444,0,0,0.010850694444444444,66.81857638888889,0)" xlink:href="#ag"/><use transform="matrix(0.010850694444444444,0,0,0.010850694444444444,74.08854166666666,0)" xlink:href="#ap"/><use transform="matrix(0.010850694444444444,0,0,0.010850694444444444,88.1618923611111,0)" xlink:href="#al"/><use transform="matrix(0.010850694444444444,0,0,0.010850694444444444,101.48654513888887,0)" xlink:href="#Y"/></g><g id="S"><use transform="matrix(0.010850694444444444,0,0,0.010850694444444444,0,0)" xlink:href="#ab"/><use transform="matrix(0.010850694444444444,0,0,0.010850694444444444,11.1328125,0)" xlink:href="#ap"/><use transform="matrix(0.010850694444444444,0,0,0.010850694444444444,25.325520833333332,0)" xlink:href="#ao"/><use transform="matrix(0.010850694444444444,0,0,0.010850694444444444,30.707465277777775,0)" xlink:href="#ai"/><use transform="matrix(0.010850694444444444,0,0,0.010850694444444444,42.86024305555556,0)" xlink:href="#ax"/><use transform="matrix(0.010850694444444444,0,0,0.010850694444444444,55.45789930555556,0)" xlink:href="#ao"/><use transform="matrix(0.010850694444444444,0,0,0.010850694444444444,60.83984375,0)" xlink:href="#af"/><use transform="matrix(0.010850694444444444,0,0,0.010850694444444444,66.22178819444444,0)" xlink:href="#Y"/><use transform="matrix(0.010850694444444444,0,0,0.010850694444444444,77.95138888888889,0)" xlink:href="#ag"/><use transform="matrix(0.010850694444444444,0,0,0.010850694444444444,85.22135416666666,0)" xlink:href="#ac"/><use transform="matrix(0.010850694444444444,0,0,0.010850694444444444,91.18923611111111,0)" xlink:href="#ad"/></g><g id="T"><use transform="matrix(0.010850694444444444,0,0,0.010850694444444444,0,0)" xlink:href="#ab"/><use transform="matrix(0.010850694444444444,0,0,0.010850694444444444,11.1328125,0)" xlink:href="#ap"/><use transform="matrix(0.010850694444444444,0,0,0.010850694444444444,25.206163194444443,0)" xlink:href="#al"/><use transform="matrix(0.010850694444444444,0,0,0.010850694444444444,38.53081597222222,0)" xlink:href="#Y"/><use transform="matrix(0.010850694444444444,0,0,0.010850694444444444,50.260416666666664,0)" xlink:href="#af"/><use transform="matrix(0.010850694444444444,0,0,0.010850694444444444,55.64236111111111,0)" xlink:href="#ag"/><use transform="matrix(0.010850694444444444,0,0,0.010850694444444444,62.912326388888886,0)" xlink:href="#af"/><use transform="matrix(0.010850694444444444,0,0,0.010850694444444444,68.29427083333333,0)" xlink:href="#al"/><use transform="matrix(0.010850694444444444,0,0,0.010850694444444444,81.6189236111111,0)" xlink:href="#av"/></g><g id="U"><use transform="matrix(0.010850694444444444,0,0,0.010850694444444444,0,0)" xlink:href="#aO"/><use transform="matrix(0.010850694444444444,0,0,0.010850694444444444,15.33203125,0)" xlink:href="#af"/><use transform="matrix(0.010850694444444444,0,0,0.010850694444444444,20.713975694444443,0)" xlink:href="#ar"/><use transform="matrix(0.010850694444444444,0,0,0.010850694444444444,34.32074652777777,0)" xlink:href="#Z"/><use transform="matrix(0.010850694444444444,0,0,0.010850694444444444,47.276475694444436,0)" xlink:href="#al"/><use transform="matrix(0.010850694444444444,0,0,0.010850694444444444,60.60112847222221,0)" xlink:href="#ac"/><use transform="matrix(0.010850694444444444,0,0,0.010850694444444444,66.56901041666666,0)" xlink:href="#ad"/></g><path d="M572 22C302 22 117-98 78-306l279-48c29 105 101 156 224 156 114 0 185-48 185-115 0-118-228-130-337-155-215-49-322-150-322-317 0-215 187-347 470-347 265 0 424 116 466 298l-266 47c-24-76-87-130-196-130-98 0-174 46-174 113 0 56 38 95 144 117l201 40c216 44 320 143 320 302 0 220-207 367-500 367" id="ba"/><g id="V"><use transform="matrix(0.008680555555555556,0,0,0.008680555555555556,0,0)" xlink:href="#aG"/><use transform="matrix(0.008680555555555556,0,0,0.008680555555555556,11.206597222222223,0)" xlink:href="#aJ"/><use transform="matrix(0.008680555555555556,0,0,0.008680555555555556,21.796875,0)" xlink:href="#aR"/><use transform="matrix(0.008680555555555556,0,0,0.008680555555555556,26.614583333333336,0)" xlink:href="#aB"/><use transform="matrix(0.008680555555555556,0,0,0.008680555555555556,37.517361111111114,0)" xlink:href="#aD"/><use transform="matrix(0.008680555555555556,0,0,0.008680555555555556,48.58506944444445,0)" xlink:href="#aW"/><use transform="matrix(0.008680555555555556,0,0,0.008680555555555556,59.81770833333334,0)" xlink:href="#ba"/></g><g id="W"><use transform="matrix(0.008680555555555556,0,0,0.008680555555555556,0,0)" xlink:href="#aK"/><use transform="matrix(0.008680555555555556,0,0,0.008680555555555556,6.336805555555556,0)" xlink:href="#aB"/></g></defs></g></svg>